<?xml version="1.0" encoding="UTF-8"?>
<svg version="1.1" xmlns="http://www.w3.org/2000/svg" width="134" height="146">
<path d="M0 0 C44.22 0 88.44 0 134 0 C134 48.18 134 96.36 134 146 C89.78 146 45.56 146 0 146 C0 97.82 0 49.64 0 0 Z " fill="#F9F9F9" transform="translate(0,0)"/>
<path d="M0 0 C1.09627967 3.288839 0.91735019 4.80690885 0.42675781 8.19213867 C0.27619934 9.25563034 0.12564087 10.31912201 -0.02947998 11.4148407 C-0.20022034 12.57087296 -0.37096069 13.72690521 -0.546875 14.91796875 C-0.80467743 16.72398308 -0.80467743 16.72398308 -1.06768799 18.56648254 C-1.62190703 22.44112935 -2.18550997 26.31433741 -2.75 30.1875 C-3.47711697 35.22220488 -4.20028683 40.25746873 -4.921875 45.29296875 C-5.18732117 47.13965652 -5.18732117 47.13965652 -5.45812988 49.02365112 C-7.11989564 60.66570859 -8.57845465 72.32623358 -10 84 C-23.86 84 -37.72 84 -52 84 C-55.23171659 55.66033147 -55.23171659 55.66033147 -48.55718994 46.2824707 C-42.48381653 38.65742997 -35.17414252 32.14118484 -27.89477539 25.69750977 C-24.69927932 22.83469774 -21.59690777 19.87422759 -18.484375 16.921875 C-12.40774354 11.18433377 -6.24002926 5.55938298 0 0 Z " fill="#010101" transform="translate(62,53)"/>
<path d="M0 0 C13.83931329 -0.54271817 23.76399265 -0.38625211 34.50390625 9.31640625 C36 11 36 11 37 14 C37.66 14 38.32 14 39 14 C39.70194375 16.05762909 40.38601697 18.12136031 41.0625 20.1875 C41.44535156 21.33605469 41.82820313 22.48460938 42.22265625 23.66796875 C43.0429139 27.18394751 43.09045384 28.61532636 42 32 C39.98828125 34.48600769 39.98828125 34.48600769 37.3125 37.12573242 C36.82628174 37.6109285 36.34006348 38.09612457 35.83911133 38.59602356 C34.23522799 40.19204411 32.61777066 41.77353715 31 43.35546875 C29.88187029 44.46359375 28.76469556 45.57268312 27.6484375 46.68269348 C24.71137031 49.59884609 21.76293292 52.50321879 18.81152344 55.40484619 C14.08435018 60.0566841 9.37576855 64.72736093 4.66503906 69.39583778 C3.01669923 71.02644912 1.36423678 72.65278504 -0.2890625 74.27836609 C-1.29692363 75.27301184 -2.30473866 76.26770431 -3.3125 77.26245117 C-4.63701172 78.56553474 -4.63701172 78.56553474 -5.98828125 79.89494324 C-8.04045333 81.83537089 -8.04045333 81.83537089 -9 84 C-9.66 84 -10.32 84 -11 84 C-10.43128821 75.83453429 -9.44258438 67.82587818 -8.125 59.75 C-6.59804109 50.12192562 -5.25512994 40.49054347 -4.08129883 30.81347656 C-2.83284734 20.52685498 -1.42663789 10.26322995 0 0 Z " fill="#020202" transform="translate(86,11)"/>
<path d="M0 0 C22.44 0 44.88 0 68 0 C64.01264575 4.65191329 60.05778968 9.08759402 55.73510742 13.39428711 C55.14086975 13.9902771 54.54663208 14.58626709 53.93438721 15.20031738 C51.99390092 17.14516139 50.04983234 19.08637668 48.10546875 21.02734375 C46.74865861 22.38482814 45.3919969 23.74246089 44.03547668 25.10023499 C41.20536679 27.93181313 38.37347085 30.76158936 35.5402832 33.59008789 C31.90055409 37.2240874 28.26537666 40.86260195 24.63149548 44.50244808 C21.83760037 47.29994452 19.04134311 50.09507002 16.24434853 52.88946724 C14.90191461 54.23123239 13.56022778 55.5737454 12.21928978 56.91700554 C10.35456721 58.78425112 8.48669832 60.64828943 6.61791992 62.51147461 C6.06054642 63.07087234 5.50317291 63.63027008 4.9289093 64.20661926 C1.11426905 68 1.11426905 68 0 68 C0 45.56 0 23.12 0 0 Z " fill="#020202" transform="translate(10,11)"/>
<path d="M0 0 C2.10460242 0.99871962 3.35216464 2.03986858 4.80581665 3.85693359 C4.80581665 4.51693359 4.80581665 5.17693359 4.80581665 5.85693359 C5.46581665 5.85693359 6.12581665 5.85693359 6.80581665 5.85693359 C12.39750907 14.1645909 12.77293337 22.20591464 11.80581665 31.85693359 C11.07505187 34.83812172 10.18400587 37.10055514 8.80581665 39.85693359 C8.14581665 39.85693359 7.48581665 39.85693359 6.80581665 39.85693359 C6.64081665 40.53755859 6.47581665 41.21818359 6.30581665 41.91943359 C2.762423 48.85857948 -3.37236326 52.24829545 -10.40396118 55.00120544 C-14.88854321 56.37657373 -19.13940086 56.35310029 -23.79574585 56.24755859 C-25.2394606 56.23906891 -25.2394606 56.23906891 -26.71234131 56.23040771 C-29.74848869 56.20824222 -32.78340034 56.15808492 -35.81918335 56.10693359 C-37.8933849 56.08684291 -39.96760519 56.06859667 -42.0418396 56.05224609 C-47.09308782 56.00844274 -52.14342702 55.93955576 -57.19418335 55.85693359 C-51.8271249 49.36410191 -45.95362113 43.39881798 -40.03012085 37.41943359 C-39.50002033 36.8840094 -38.96991982 36.34858521 -38.42375565 35.79693604 C-35.62775702 32.9744054 -32.82823006 30.155424 -30.0262146 27.33886719 C-27.71089246 25.01011292 -25.40309383 22.6742649 -23.10140991 20.33203125 C-20.31093539 17.49242384 -17.50855599 14.66511572 -14.69697952 11.84640503 C-13.62978335 10.77248199 -12.56685795 9.69429753 -11.50831223 8.61184692 C-10.03401022 7.10611417 -8.54491642 5.61672684 -7.05111694 4.13037109 C-5.78586685 2.85299072 -5.78586685 2.85299072 -4.49505615 1.54980469 C-2.19418335 -0.14306641 -2.19418335 -0.14306641 0 0 Z " fill="#050505" transform="translate(117.19418334960938,81.14306640625)"/>
<path d="M0 0 C1.07870781 3.23612344 0.93877077 4.69820771 0.47094727 8.0222168 C0.33072647 9.04304855 0.19050568 10.06388031 0.04603577 11.11564636 C-0.11224197 12.21572525 -0.27051971 13.31580414 -0.43359375 14.44921875 C-0.59038101 15.5769722 -0.74716827 16.70472565 -0.90870667 17.86665344 C-1.41182071 21.47454461 -1.9245462 25.08099596 -2.4375 28.6875 C-2.77992993 31.13077073 -3.12173477 33.57412916 -3.46289062 36.01757812 C-4.30133834 42.01275586 -5.14768487 48.00677892 -6 54 C-6.77730469 53.21238281 -7.55460937 52.42476562 -8.35546875 51.61328125 C-10.49069341 49.50328819 -12.55463961 47.72080917 -15 46 C-15.43570313 46.55429688 -15.87140625 47.10859375 -16.3203125 47.6796875 C-19.85603336 51.9807159 -22.29593247 54.88701121 -28 56 C-27.62488281 55.56429687 -27.24976562 55.12859375 -26.86328125 54.6796875 C-23.54140223 50.81392401 -20.25357073 46.92342352 -17 43 C-20.63 39.37 -24.26 35.74 -28 32 C-33.00728084 36.20276914 -37.75078129 40.56821116 -42.375 45.1875 C-43.00277344 45.80302734 -43.63054688 46.41855469 -44.27734375 47.05273438 C-44.87417969 47.64763672 -45.47101562 48.24253906 -46.0859375 48.85546875 C-46.6226709 49.38809326 -47.1594043 49.92071777 -47.71240234 50.46948242 C-49.23388074 52.08706379 -49.23388074 52.08706379 -50 55 C-49.113125 55.226875 -48.22625 55.45375 -47.3125 55.6875 C-43.5358753 57.18389846 -41.61382024 58.92491737 -39 62 C-39 62.66 -39 63.32 -39 64 C-37.35 63.34 -35.7 62.68 -34 62 C-33.4465236 64.07553648 -33 65.84365964 -33 68 C-31.67228234 69.57111317 -31.67228234 69.57111317 -30 71.125 C-29.443125 71.66382812 -28.88625 72.20265625 -28.3125 72.7578125 C-27.879375 73.16773437 -27.44625 73.57765625 -27 74 C-27.33 74.66 -27.66 75.32 -28 76 C-33.75 71.375 -33.75 71.375 -36 68 C-36.99 67.67 -37.98 67.34 -39 67 C-39.268125 67.639375 -39.53625 68.27875 -39.8125 68.9375 C-41 71 -41 71 -44 72 C-44 72.66 -44 73.32 -44 74 C-44.66 74 -45.32 74 -46 74 C-46.28875 74.61875 -46.5775 75.2375 -46.875 75.875 C-48 78 -48 78 -50 80 C-50.69748583 81.31747324 -51.36959957 82.64914193 -52 84 C-54.03835978 71.68299993 -56.22080523 57.05002335 -48.55718994 46.2824707 C-42.48381653 38.65742997 -35.17414252 32.14118484 -27.89477539 25.69750977 C-24.69927932 22.83469774 -21.59690777 19.87422759 -18.484375 16.921875 C-12.40774354 11.18433377 -6.24002926 5.55938298 0 0 Z " fill="#020202" transform="translate(62,53)"/>
<path d="M0 0 C0.33 0 0.66 0 1 0 C0.93304932 0.72590332 0.86609863 1.45180664 0.79711914 2.19970703 C0.51388414 5.50613912 0.28774152 8.81413275 0.0625 12.125 C-0.04384766 13.26710938 -0.15019531 14.40921875 -0.25976562 15.5859375 C-0.80598324 21.71809001 -0.80598324 21.71809001 1.55810547 27.14355469 C3.30483155 28.64074847 4.99603416 29.87629873 7 31 C8.65 30.34 10.3 29.68 12 29 C10.02 31.97 10.02 31.97 8 35 C8.56203125 35.23460937 9.1240625 35.46921875 9.703125 35.7109375 C12.54635891 37.30663 14.48098127 39.28924543 16.75 41.625 C17.54921875 42.44226562 18.3484375 43.25953125 19.171875 44.1015625 C19.77515625 44.72804687 20.3784375 45.35453125 21 46 C15.64602018 52.52145754 9.68698091 58.39421071 3.6875 64.3125 C1.68853383 66.28488502 -0.3070922 68.26056397 -2.30078125 70.23828125 C-3.17903564 71.10493408 -4.05729004 71.97158691 -4.9621582 72.86450195 C-7.03727173 74.82958671 -7.03727173 74.82958671 -8 77 C-8.66 77 -9.32 77 -10 77 C-9.43128871 68.83454137 -8.44267039 60.82586369 -7.125 52.75 C-5.2725809 41.07504015 -3.74127703 29.38161586 -2.32470703 17.64697266 C-1.60227812 11.75781908 -0.8008157 5.87892937 0 0 Z " fill="#050505" transform="translate(85,18)"/>
<path d="M0 0 C2.03833424 1.2739589 4.03852126 2.61061923 6 4 C6 4.66 6 5.32 6 6 C6.556875 6.226875 7.11375 6.45375 7.6875 6.6875 C10.66159588 8.37550036 12.72008865 10.46676517 15 13 C15 13.66 15 14.32 15 15 C15.99 15.33 16.98 15.66 18 16 C20.75 18.875 20.75 18.875 23 22 C22.505 23.485 22.505 23.485 22 25 C19.69 22.36 17.38 19.72 15 17 C13.88625 17.94875 12.7725 18.8975 11.625 19.875 C10.99851563 20.40867187 10.37203125 20.94234375 9.7265625 21.4921875 C8.44163349 22.61432007 7.20628025 23.79371975 6 25 C4.35008418 25.70710678 2.68437744 26.37943989 1 27 C1.37511719 26.56429687 1.75023438 26.12859375 2.13671875 25.6796875 C5.45859777 21.81392401 8.74642927 17.92342352 12 14 C8.37 10.37 4.74 6.74 1 3 C-4.00728084 7.20276914 -8.75078129 11.56821116 -13.375 16.1875 C-14.31666016 17.11079102 -14.31666016 17.11079102 -15.27734375 18.05273438 C-15.87417969 18.64763672 -16.47101562 19.24253906 -17.0859375 19.85546875 C-17.6226709 20.38809326 -18.1594043 20.92071777 -18.71240234 21.46948242 C-20.23388074 23.08706379 -20.23388074 23.08706379 -21 26 C-20.113125 26.226875 -19.22625 26.45375 -18.3125 26.6875 C-14.5358753 28.18389846 -12.61382024 29.92491737 -10 33 C-10 33.66 -10 34.32 -10 35 C-8.35 34.34 -6.7 33.68 -5 33 C-4.4465236 35.07553648 -4 36.84365964 -4 39 C-2.67228234 40.57111317 -2.67228234 40.57111317 -1 42.125 C-0.443125 42.66382813 0.11375 43.20265625 0.6875 43.7578125 C1.120625 44.16773438 1.55375 44.57765625 2 45 C1.67 45.66 1.34 46.32 1 47 C-4.75 42.375 -4.75 42.375 -7 39 C-7.99 38.67 -8.98 38.34 -10 38 C-10.268125 38.639375 -10.53625 39.27875 -10.8125 39.9375 C-12 42 -12 42 -15 43 C-15 43.66 -15 44.32 -15 45 C-15.66 45 -16.32 45 -17 45 C-17.28875 45.61875 -17.5775 46.2375 -17.875 46.875 C-19 49 -19 49 -21 51 C-21.69748583 52.31747324 -22.36959957 53.64914193 -23 55 C-26.8002962 28.21490228 -26.8002962 28.21490228 -20.74267578 19.22705078 C-14.94548049 11.78346665 -7.47871297 5.67994759 0 0 Z " fill="#030303" transform="translate(33,82)"/>
<path d="M0 0 C3.86486124 1.5745731 6.13495301 4.0047236 9 7 C10.43482559 8.44016945 11.87246249 9.87754199 13.3125 11.3125 C14.54166667 12.54166667 15.77083333 13.77083333 17 15 C20.12197478 13.6910428 20.12197478 13.6910428 22 11 C22.66 11 23.32 11 24 11 C24.33 10.34 24.66 9.68 25 9 C25.66 10.32 26.32 11.64 27 13 C27.66 13 28.32 13 29 13 C29.70194375 15.05762909 30.38601697 17.12136031 31.0625 19.1875 C31.44535156 20.33605469 31.82820313 21.48460938 32.22265625 22.66796875 C32.99710607 25.98759538 33.11489941 27.80706819 32 31 C31.34 31.33 30.68 31.66 30 32 C29.54109375 31.46890625 29.0821875 30.9378125 28.609375 30.390625 C25.50506283 26.81675301 22.41818688 23.28145941 19 20 C16.11562221 21.29299694 14.12780579 22.65941363 12 25 C11.34 24.67 10.68 24.34 10 24 C11.65 22.02 13.3 20.04 15 18 C13.68080338 15.06858448 12.26599211 13.03317275 9.9609375 10.80078125 C9.38085938 10.23166016 8.80078125 9.66253906 8.203125 9.07617188 C7.59984375 8.49416016 6.9965625 7.91214844 6.375 7.3125 C4.22845358 5.22708939 2.10610824 3.12687269 0 1 C0 0.67 0 0.34 0 0 Z " fill="#0B0B0B" transform="translate(96,12)"/>
<path d="M0 0 C0 0.99 0 1.98 0 3 C2.94144427 7.3565721 6.7822778 10.89873368 11 14 C10.67 14.99 10.34 15.98 10 17 C1.42 17 -7.16 17 -16 17 C-12.25711426 12.63329996 -8.68596348 8.56858559 -4.625 4.5625 C-3.75101563 3.69753906 -2.87703125 2.83257812 -1.9765625 1.94140625 C-1.32429688 1.30074219 -0.67203125 0.66007812 0 0 Z " fill="#060606" transform="translate(76,120)"/>
<path d="M0 0 C0.33 0 0.66 0 1 0 C1.55353075 16.8929385 1.55353075 16.8929385 -2 24 C-2.66 24 -3.32 24 -4 24 C-4.433125 25.2065625 -4.433125 25.2065625 -4.875 26.4375 C-6 29 -6 29 -8 30 C-8 29.34 -8 28.68 -8 28 C-8.66 28 -9.32 28 -10 28 C-11.625 26 -11.625 26 -13 24 C-14.65 24.33 -16.3 24.66 -18 25 C-16.62974466 20.39095931 -15.0286254 19.38966827 -11 17 C-9.19843353 15.4755976 -7.44899035 13.88794878 -5.75 12.25 C-4.87859375 11.43015625 -4.0071875 10.6103125 -3.109375 9.765625 C-0.59098351 6.46373393 -0.26215943 4.09372036 0 0 Z " fill="#141414" transform="translate(128,97)"/>
<path d="M0 0 C0.66 1.32 1.32 2.64 2 4 C3.65992385 5.79598318 5.3733972 7.5433101 7.125 9.25 C8.03507812 10.14203125 8.94515625 11.0340625 9.8828125 11.953125 C10.58148438 12.62859375 11.28015625 13.3040625 12 14 C11.67 14.66 11.34 15.32 11 16 C8.03 13.03 5.06 10.06 2 7 C1.87624039 12.88981485 1.78558486 18.77887012 1.7253418 24.66967773 C1.7002245 26.67274156 1.66612405 28.67571398 1.62280273 30.6784668 C1.56202812 33.56061366 1.53376268 36.44154721 1.51171875 39.32421875 C1.48591232 40.21711105 1.4601059 41.11000336 1.43351746 42.029953 C1.4315028 46.51370104 1.48594532 48.36223135 4.38598633 51.96020508 C5.24861084 52.6333374 6.11123535 53.30646973 7 54 C8.33333333 55.33333333 9.66666667 56.66666667 11 58 C9.35718838 59.66964521 7.71067239 61.3356464 6.0625 63 C4.68771484 64.3921875 4.68771484 64.3921875 3.28515625 65.8125 C1 68 1 68 0 68 C0 45.56 0 23.12 0 0 Z " fill="#141414" transform="translate(10,11)"/>
<path d="M0 0 C2.03833424 1.2739589 4.03852126 2.61061923 6 4 C6 4.66 6 5.32 6 6 C6.556875 6.226875 7.11375 6.45375 7.6875 6.6875 C10.66159588 8.37550036 12.72008865 10.46676517 15 13 C15 13.66 15 14.32 15 15 C15.99 15.33 16.98 15.66 18 16 C20.75 18.875 20.75 18.875 23 22 C22.505 23.485 22.505 23.485 22 25 C19.69 22.36 17.38 19.72 15 17 C13.88625 17.94875 12.7725 18.8975 11.625 19.875 C10.99851563 20.40867187 10.37203125 20.94234375 9.7265625 21.4921875 C8.44163349 22.61432007 7.20628025 23.79371975 6 25 C4.35008418 25.70710678 2.68437744 26.37943989 1 27 C1.37511719 26.56429687 1.75023438 26.12859375 2.13671875 25.6796875 C5.45859777 21.81392401 8.74642927 17.92342352 12 14 C8.37 10.37 4.74 6.74 1 3 C0.00871094 3.85851562 -0.98257813 4.71703125 -2.00390625 5.6015625 C-4.59500505 7.83817235 -7.24247381 9.94995386 -9.96484375 12.0234375 C-17.6545209 18.26013511 -17.6545209 18.26013511 -21.6796875 27.03955078 C-22.29883003 34.05824249 -21.84587567 41.01697103 -21 48 C-19.68 47.01 -18.36 46.02 -17 45 C-18.15173355 47.46800047 -19.04783565 49.04783565 -21 51 C-21.69748583 52.31747324 -22.36959957 53.64914193 -23 55 C-26.8002962 28.21490228 -26.8002962 28.21490228 -20.74267578 19.22705078 C-14.94548049 11.78346665 -7.47871297 5.67994759 0 0 Z " fill="#161616" transform="translate(33,82)"/>
<path d="M0 0 C1.26237731 3.78713193 0.67558873 6.25651933 0.0625 10.1875 C-0.13214844 11.45980469 -0.32679687 12.73210937 -0.52734375 14.04296875 C-0.68332031 15.01878906 -0.83929688 15.99460937 -1 17 C-1.28875 16.401875 -1.5775 15.80375 -1.875 15.1875 C-3.04742026 12.80672208 -3.04742026 12.80672208 -5 10 C-8.36335594 11.45745424 -10.54534005 13.31117854 -13.109375 15.9140625 C-14.24052734 17.05488281 -14.24052734 17.05488281 -15.39453125 18.21875 C-16.17183594 19.0128125 -16.94914062 19.806875 -17.75 20.625 C-18.54277344 21.42679688 -19.33554687 22.22859375 -20.15234375 23.0546875 C-22.10614493 25.03202846 -24.05512103 27.01388909 -26 29 C-26.66 28.67 -27.32 28.34 -28 28 C-18.76 18.76 -9.52 9.52 0 0 Z " fill="#202020" transform="translate(62,53)"/>
<path d="M0 0 C0.33 0 0.66 0 1 0 C0.93304932 0.72590332 0.86609863 1.45180664 0.79711914 2.19970703 C0.51388414 5.50613912 0.28774152 8.81413275 0.0625 12.125 C-0.04384766 13.26710938 -0.15019531 14.40921875 -0.25976562 15.5859375 C-0.80598324 21.71809001 -0.80598324 21.71809001 1.55810547 27.14355469 C3.30483155 28.64074847 4.99603416 29.87629873 7 31 C8.65 30.34 10.3 29.68 12 29 C10.1875 32 10.1875 32 8 35 C7.01 35 6.02 35 5 35 C3.30911778 33.02043058 1.64169528 31.02054804 0 29 C-0.66 29 -1.32 29 -2 29 C-2.66 34.28 -3.32 39.56 -4 45 C-4.33 45 -4.66 45 -5 45 C-4.56687421 29.84059718 -2.2868518 14.97498573 0 0 Z " fill="#3A3A3A" transform="translate(85,18)"/>
<path d="M0 0 C0.99 0.33 1.98 0.66 3 1 C2.58113525 1.43868408 2.16227051 1.87736816 1.73071289 2.3293457 C-0.16371946 4.31901267 -2.0506563 6.31563626 -3.9375 8.3125 C-4.59685547 9.00279297 -5.25621094 9.69308594 -5.93554688 10.40429688 C-6.56396484 11.07138672 -7.19238281 11.73847656 -7.83984375 12.42578125 C-8.42113037 13.03848877 -9.00241699 13.65119629 -9.60131836 14.2824707 C-11.21606771 16.05845439 -11.21606771 16.05845439 -12 19 C-11.12516085 21.16715557 -11.12516085 21.16715557 -10 23 C-11.32 22.34 -12.64 21.68 -14 21 C-14 20.34 -14 19.68 -14 19 C-15.65 20.32 -17.3 21.64 -19 23 C-19.66 22.67 -20.32 22.34 -21 22 C-20.2575 21.1028125 -20.2575 21.1028125 -19.5 20.1875 C-17.71723582 18.02970006 -17.71723582 18.02970006 -18 15 C-17.29875 14.979375 -16.5975 14.95875 -15.875 14.9375 C-12.08941398 13.70306978 -10.69840034 11.59922156 -8.33203125 8.49609375 C-7.89246094 8.00238281 -7.45289063 7.50867188 -7 7 C-6.34 7 -5.68 7 -5 7 C-4.731875 6.401875 -4.46375 5.80375 -4.1875 5.1875 C-3.01506533 3.02775192 -1.80630718 1.64209744 0 0 Z " fill="#0F0F0F" transform="translate(40,12)"/>
<path d="M0 0 C2.88437779 1.29299694 4.87219421 2.65941363 7 5 C5.82633684 7.88080957 4.64907259 9.34257199 2.375 11.5625 C-0.34893236 13.7909084 -0.34893236 13.7909084 0 17 C-0.66 17 -1.32 17 -2 17 C-1.85978195 14.35375716 -1.71310224 11.70815422 -1.5625 9.0625 C-1.52318359 8.30775391 -1.48386719 7.55300781 -1.44335938 6.77539062 C-1.11328125 1.11328125 -1.11328125 1.11328125 0 0 Z " fill="#040404" transform="translate(83,46)"/>
<path d="M0 0 C3.86486124 1.5745731 6.13495301 4.0047236 9 7 C10.43482559 8.44016945 11.87246249 9.87754199 13.3125 11.3125 C14.54166667 12.54166667 15.77083333 13.77083333 17 15 C20.12197478 13.6910428 20.12197478 13.6910428 22 11 C22.66 11 23.32 11 24 11 C24.33 10.34 24.66 9.68 25 9 C25 13.28535967 22.7483722 14.84942699 20 18 C19.67 18.66 19.34 19.32 19 20 C17.66666667 20.66666667 16.33333333 21.33333333 15 22 C13.29078411 23.5412312 13.29078411 23.5412312 12 25 C11.34 24.67 10.68 24.34 10 24 C11.65 22.02 13.3 20.04 15 18 C13.68080338 15.06858448 12.26599211 13.03317275 9.9609375 10.80078125 C9.38085938 10.23166016 8.80078125 9.66253906 8.203125 9.07617188 C7.59984375 8.49416016 6.9965625 7.91214844 6.375 7.3125 C4.22845358 5.22708939 2.10610824 3.12687269 0 1 C0 0.67 0 0.34 0 0 Z " fill="#161616" transform="translate(96,12)"/>
<path d="M0 0 C5.46875 4.296875 5.46875 4.296875 7 6 C7 10 7 10 4.625 12.75 C2 15 2 15 0 15 C0 10.05 0 5.1 0 0 Z " fill="#060606" transform="translate(11,62)"/>
<path d="M0 0 C0.33 0 0.66 0 1 0 C1 2.31 1 4.62 1 7 C3.475 7.99 3.475 7.99 6 9 C6 12.54404336 5.39010515 13.10267905 3.125 15.6875 C2.59132813 16.31011719 2.05765625 16.93273437 1.5078125 17.57421875 C0 19 0 19 -2 19 C-1.50873071 12.63440427 -1.00344253 6.30735307 0 0 Z " fill="#333333" transform="translate(77,76)"/>
<path d="M0 0 C3.36179774 1.44077046 5.59156268 3.24750021 8 6 C8 6.66 8 7.32 8 8 C9.65 7.34 11.3 6.68 13 6 C13.5534764 8.07553648 14 9.84365964 14 12 C15.32771766 13.57111317 15.32771766 13.57111317 17 15.125 C17.556875 15.66382812 18.11375 16.20265625 18.6875 16.7578125 C19.120625 17.16773437 19.55375 17.57765625 20 18 C19.67 18.66 19.34 19.32 19 20 C13.25 15.375 13.25 15.375 11 12 C10.01 11.67 9.02 11.34 8 11 C7.3125 8.9375 7.3125 8.9375 7 7 C6.34 7 5.68 7 5 7 C0 1.4047619 0 1.4047619 0 0 Z " fill="#151515" transform="translate(15,109)"/>
<path d="M0 0 C4.21158197 0.75808475 6.2399286 3.00992103 9 6.0625 C9.49757813 6.58714844 9.99515625 7.11179687 10.5078125 7.65234375 C11.72763915 8.94254502 12.92830249 10.25081732 14.125 11.5625 C13.465 12.2225 12.805 12.8825 12.125 13.5625 C8.495 9.9325 4.865 6.3025 1.125 2.5625 C-3.32107497 4.34092999 -4.8547308 5.20664533 -7.875 8.5625 C-8.535 8.2325 -9.195 7.9025 -9.875 7.5625 C-8.85366524 6.37799341 -7.80685158 5.215429 -6.75 4.0625 C-6.16992188 3.4128125 -5.58984375 2.763125 -4.9921875 2.09375 C-2.875 0.5625 -2.875 0.5625 0 0 Z " fill="#111111" transform="translate(91.875,52.4375)"/>
<path d="M0 0 C0 0.99 0 1.98 0 3 C2.98232315 7.41711779 6.85611315 10.70926633 11 14 C11 14.66 11 15.32 11 16 C6.62960457 14.1603458 4.18030415 11.08141883 1.09765625 7.58203125 C-0.93217229 5.68095383 -0.93217229 5.68095383 -3.75390625 6.26171875 C-4.49511719 6.50535156 -5.23632812 6.74898438 -6 7 C-4.02 4.69 -2.04 2.38 0 0 Z " fill="#1D1D1D" transform="translate(76,120)"/>
<path d="M0 0 C0.18451025 9.41002278 0.18451025 9.41002278 -1 14 C-2.73662334 10.77484237 -3.8905928 7.48670834 -5 4 C-1.125 0 -1.125 0 0 0 Z " fill="#141414" transform="translate(62,56)"/>
<path d="M0 0 C3 0 3 0 5.25 2.125 C6.1575 3.07375 7.065 4.0225 8 5 C10.29907271 7.04096475 12.64446949 9.02461274 15 11 C14.34 11.66 13.68 12.32 13 13 C9.18695118 9.78675661 5.52729754 6.52729754 2 3 C1.34 2.67 0.68 2.34 0 2 C0 1.34 0 0.68 0 0 Z " fill="#131313" transform="translate(51,12)"/>
<path d="M0 0 C0.66 0 1.32 0 2 0 C0.55922954 3.36179774 -1.24750021 5.59156268 -4 8 C-4.66 8 -5.32 8 -6 8 C-6 8.66 -6 9.32 -6 10 C-6.66 10 -7.32 10 -8 10 C-7.34 8.68 -6.68 7.36 -6 6 C-5.34 6 -4.68 6 -4 6 C-3.34 4.68 -2.68 3.36 -2 2 C-1.34 2 -0.68 2 0 2 C0 1.34 0 0.68 0 0 Z " fill="#131313" transform="translate(104,37)"/>
<path d="M0 0 C2.5 1.375 2.5 1.375 5 3 C5 3.66 5 4.32 5 5 C5.9590625 5.433125 5.9590625 5.433125 6.9375 5.875 C9 7 9 7 10 9 C6.71245489 8.42110619 5.06327505 7.45171589 2.75 5.0625 C2.22921875 4.53785156 1.7084375 4.01320313 1.171875 3.47265625 C0 2 0 2 0 0 Z " fill="#111111" transform="translate(34,83)"/>
<path d="M0 0 C1.32 0.33 2.64 0.66 4 1 C4 1.99 4 2.98 4 4 C1.5 6.1875 1.5 6.1875 -1 8 C-1.66 7.67 -2.32 7.34 -3 7 C-2.505 6.401875 -2.01 5.80375 -1.5 5.1875 C0.28276418 3.02970006 0.28276418 3.02970006 0 0 Z " fill="#171717" transform="translate(22,27)"/>
<path d="M0 0 C3.7952131 1.49097658 5.61042731 3.75700849 8 7 C7.01 7 6.02 7 5 7 C0 1.53488372 0 1.53488372 0 0 Z " fill="#121212" transform="translate(35,129)"/>
</svg>
